<svg xmlns="http://www.w3.org/2000/svg" xmlns:xlink="http://www.w3.org/1999/xlink" width="500" zoomAndPan="magnify" viewBox="0 0 375 374.999991" height="500" preserveAspectRatio="xMidYMid meet" version="1.0"><defs><clipPath id="53423705e9"><path d="M 57 51 L 255 51 L 255 341.574219 L 57 341.574219 Z M 57 51 " clip-rule="nonzero"/></clipPath><clipPath id="d6b50fd4ff"><path d="M 193 33.324219 L 320 33.324219 L 320 213 L 193 213 Z M 193 33.324219 " clip-rule="nonzero"/></clipPath></defs><path fill="#3dbfea" d="M 155.945312 334.007812 C 122.335938 334.007812 91.65625 315.621094 75.875 286.019531 C 61.808594 259.632812 61.800781 227.863281 75.851562 201.042969 L 149.113281 63.605469 C 150.445312 61.109375 153.042969 59.550781 155.875 59.550781 C 158.703125 59.550781 161.300781 61.109375 162.632812 63.605469 L 235.871094 200.996094 C 247.242188 222.328125 249.613281 246.8125 242.546875 269.925781 C 235.480469 293.042969 219.820312 312.027344 198.449219 323.382812 C 185.371094 330.332031 170.671875 334.007812 155.945312 334.007812 Z M 155.945312 334.007812 " fill-opacity="1" fill-rule="nonzero"/><g clip-path="url(#53423705e9)"><path fill="#003f67" d="M 155.871094 67.195312 L 229.109375 204.585938 C 250.640625 244.972656 235.304688 295.136719 194.855469 316.632812 C 182.4375 323.234375 169.09375 326.363281 155.945312 326.363281 C 126.261719 326.363281 97.554688 310.417969 82.636719 282.429688 C 69.257812 257.335938 70.367188 228.007812 82.636719 204.585938 L 155.871094 67.195312 M 155.871094 51.90625 C 150.214844 51.90625 145.015625 55.023438 142.355469 60.011719 L 69.117188 197.402344 C 69.101562 197.433594 69.082031 197.464844 69.066406 197.5 C 53.84375 226.558594 53.863281 260.996094 69.117188 289.613281 C 86.230469 321.714844 119.5 341.652344 155.945312 341.652344 C 171.921875 341.652344 187.863281 337.667969 202.050781 330.128906 C 225.222656 317.816406 242.207031 297.226562 249.871094 272.15625 C 257.535156 247.089844 254.960938 220.539062 242.628906 197.402344 L 169.390625 60.011719 C 166.730469 55.023438 161.53125 51.90625 155.871094 51.90625 Z M 155.871094 51.90625 " fill-opacity="1" fill-rule="nonzero"/></g><path fill="#b1deef" d="M 142.523438 145.804688 L 184.398438 224.359375 C 196.707031 247.453125 187.9375 276.136719 164.8125 288.429688 C 141.683594 300.71875 112.957031 291.960938 100.648438 268.871094 C 92.996094 254.523438 93.632812 237.753906 100.648438 224.359375 Z M 142.523438 145.804688 " fill-opacity="1" fill-rule="nonzero"/><path fill="#0093c1" d="M 229.113281 204.585938 L 155.875 67.195312 L 142.558594 92.175781 L 202.480469 204.585938 C 224.011719 244.96875 208.671875 295.136719 168.226562 316.632812 C 159.976562 321.015625 151.316406 323.84375 142.582031 325.265625 C 159.875 328.082031 178.195312 325.488281 194.855469 316.632812 C 235.304688 295.136719 250.640625 244.972656 229.113281 204.585938 Z M 229.113281 204.585938 " fill-opacity="1" fill-rule="nonzero"/><path fill="#3dbfea" d="M 256.597656 204.722656 C 236.136719 204.722656 217.460938 193.53125 207.855469 175.511719 C 199.292969 159.445312 199.28125 140.113281 207.828125 123.792969 L 249.796875 45.0625 C 251.128906 42.570312 253.726562 41.011719 256.558594 41.011719 C 259.386719 41.011719 261.984375 42.570312 263.316406 45.0625 L 305.261719 123.746094 C 312.183594 136.734375 313.628906 151.636719 309.324219 165.710938 C 305.023438 179.785156 295.488281 191.339844 282.480469 198.253906 C 274.515625 202.484375 265.566406 204.722656 256.597656 204.722656 Z M 256.597656 204.722656 " fill-opacity="1" fill-rule="nonzero"/><g clip-path="url(#d6b50fd4ff)"><path fill="#003f67" d="M 256.558594 48.65625 L 298.5 127.335938 C 310.828125 150.464844 302.046875 179.195312 278.882812 191.507812 C 271.769531 195.285156 264.128906 197.078125 256.597656 197.078125 C 239.601562 197.078125 223.160156 187.945312 214.613281 171.917969 C 206.957031 157.546875 207.589844 140.75 214.613281 127.335938 L 256.558594 48.65625 M 256.558594 33.367188 C 250.898438 33.367188 245.699219 36.484375 243.039062 41.472656 L 201.097656 120.152344 C 201.078125 120.1875 201.0625 120.21875 201.042969 120.25 C 191.324219 138.804688 191.34375 160.804688 201.097656 179.101562 C 212.035156 199.621094 233.300781 212.367188 256.597656 212.367188 C 266.816406 212.367188 277.011719 209.820312 286.078125 205 C 300.890625 197.128906 311.746094 183.96875 316.644531 167.941406 C 321.546875 151.914062 319.902344 134.945312 312.015625 120.152344 L 270.074219 41.46875 C 267.414062 36.484375 262.214844 33.367188 256.558594 33.367188 Z M 256.558594 33.367188 " fill-opacity="1" fill-rule="nonzero"/></g><path fill="#b1deef" d="M 248.910156 93.675781 L 272.894531 138.664062 C 279.941406 151.886719 274.921875 168.3125 261.675781 175.351562 C 248.433594 182.390625 231.980469 177.375 224.929688 164.152344 C 220.550781 155.9375 220.910156 146.332031 224.929688 138.664062 Z M 248.910156 93.675781 " fill-opacity="1" fill-rule="nonzero"/><path fill="#0093c1" d="M 298.5 127.335938 L 256.558594 48.65625 L 248.929688 62.960938 L 283.25 127.335938 C 295.578125 150.464844 286.792969 179.195312 263.628906 191.507812 C 258.90625 194.019531 253.949219 195.636719 248.945312 196.453125 C 258.847656 198.0625 269.339844 196.578125 278.882812 191.507812 C 302.046875 179.195312 310.828125 150.464844 298.5 127.335938 Z M 298.5 127.335938 " fill-opacity="1" fill-rule="nonzero"/></svg>